<?xml version="1.0" encoding="UTF-8"?><svg id="LOGO" xmlns="http://www.w3.org/2000/svg" viewBox="0 0 632 230"><defs><style>.cls-1{fill:#ffd803;}.cls-1,.cls-2{stroke-width:0px;}.cls-2{fill:#00406f;}</style></defs><path class="cls-2" d="M221.85,70.82h-42.49c-6.71,0-12.18-5.46-12.18-12.18V12.16c10.86,5.46,20.9,12.69,29.75,21.54,10.82,10.82,19.22,23.41,24.92,37.12Z"/><path class="cls-2" d="M80.77,5.33v23.29c-3.89,1.85-6.58,5.81-6.58,10.41s2.69,8.56,6.58,10.4v44.98h-20.09V13.88c6.41-3.49,13.14-6.35,20.09-8.54Z"/><path class="cls-2" d="M50.78,19.94v74.47h-1.83c-5.25,0-9.51,4.26-9.51,9.51h0c0,5.25,4.26,9.51,9.51,9.51h1.83v30.55c0,7.75-6.31,14.05-14.05,14.05H8.78C3.36,144.55.52,130.02.52,115.05c0-30.73,11.97-59.62,33.7-81.35,5.14-5.15,10.69-9.74,16.56-13.76Z"/><path class="cls-2" d="M80.77,113.43v111.34c-17.38-5.49-33.3-15.11-46.55-28.37-8.5-8.51-15.51-18.11-20.89-28.48h23.4c13.21,0,23.95-10.74,23.95-23.95v-30.55h20.09Z"/><path class="cls-2" d="M110.63,230s0,0,0,0c-6.78-.28-13.45-1.15-19.96-2.58v-113.99h19.96v68.31c-3.89,1.85-6.58,5.82-6.58,10.41s2.69,8.56,6.58,10.4v26.77c0,.23,0,.45,0,.68Z"/><path class="cls-2" d="M160.96,70.82h-24.53c-13.48,0-24.58,10.39-25.71,23.58h-20.06v-44.98c3.89-1.85,6.57-5.82,6.57-10.4s-2.68-8.56-6.57-10.41V2.69C98.76.91,107.09,0,115.57,0,130.08,0,144.17,2.66,157.28,7.76v50.88c0,4.5,1.35,8.69,3.67,12.18Z"/><path class="cls-2" d="M162.24,135.89c-3.11,4.13-4.96,9.27-4.96,14.83v71.62c-11.62,4.52-23.99,7.12-36.75,7.66-.01-.23-.02-.45-.02-.68v-26.77c3.88-1.85,6.57-5.81,6.57-10.4s-2.69-8.56-6.57-10.41v-28.08c0-9.8,7.97-17.77,17.77-17.77h23.95Z"/><path class="cls-2" d="M228.75,135.89c-4.14,22.8-15.09,43.78-31.83,60.52-8.85,8.85-18.88,16.08-29.75,21.54v-67.22c0-8.18,6.65-14.83,14.83-14.83h10.99c1.85,3.89,5.82,6.58,10.41,6.58s8.56-2.69,10.4-6.58h14.94Z"/><path class="cls-2" d="M230.63,115.05c0,3.67-.17,7.32-.51,10.94h-16.29c-1.85-3.88-5.81-6.57-10.4-6.57s-8.56,2.69-10.41,6.57h-54.71c-6.76,0-12.96,2.44-17.77,6.48v-19.04h1.97c5.25,0,9.51-4.26,9.51-9.51h0c0-5.25-4.26-9.51-9.51-9.51h-1.81c1.09-7.72,7.74-13.69,15.76-13.69h89.01c3.42,10.97,5.19,22.51,5.19,34.33Z"/><path class="cls-2" d="M120.52,229.32v.68s.01,0,.02,0c-.01-.23-.02-.45-.02-.68Z"/><path class="cls-2" d="M251.85,126s-21.71,0-21.78,0c0,0-.74,6.29-1.33,9.88,0,.01,23.11,0,23.11,0,3.05,0,5.52-2.21,5.52-4.94s-2.47-4.94-5.52-4.94Z"/><path class="cls-2" d="M307.69,64.35c-4.42,0-8.26,2.43-10.21,6.01l-75.54,1.03c-.07,0-.15,0-.22,0l3.82,9.8,71.54-.95c1.78,4.02,5.86,6.84,10.61,6.84,6.39,0,11.58-5.09,11.58-11.36s-5.18-11.36-11.58-11.36Z"/><path class="cls-1" d="M345.47,92.82c-2.04-3.85-2.69-9.34-1.97-16.47.7-8.71,2.91-15.26,6.64-19.63,3.73-4.37,8.69-6.56,14.88-6.56,5.2,0,9.39,1.31,12.57,3.92,3.18,2.62,4.51,5.34,4,8.19l-4.26,4.3c.48-2.76-.3-5.24-2.33-7.44-2.04-2.2-4.76-3.3-8.17-3.3-3.94,0-7.24,1.41-9.89,4.22-2.66,2.82-4.38,7.99-5.19,15.53-.8,6.54-.44,11.07,1.11,13.58s4.03,3.76,7.46,3.76,6.51-1.09,9.31-3.28c2.8-2.19,4.45-4.67,4.93-7.46l2.82,4.34c-.51,2.82-2.78,5.53-6.8,8.14s-8.65,3.92-13.88,3.92-9.18-1.92-11.22-5.77ZM373.02,90.87l9.81-55.75h8.09l-11.1,63.15h-7.56l.77-7.4Z"/><path class="cls-1" d="M392.64,92.24c-2.45-4.29-3.05-10.26-1.79-17.9,1.34-8.07,4.06-14.12,8.15-18.14,4.09-4.02,9.71-6.03,16.87-6.03s12.33,2.02,14.78,6.05c2.45,4.04,2.98,10.04,1.59,18-.16.94-.36,1.81-.6,2.61h-34.19l.88-5.07h26.67l-.56.88c1.1-6.22.77-10.62-.99-13.21-1.76-2.59-4.59-3.88-8.51-3.88s-7.23,1.35-10.12,4.04c-2.88,2.69-4.91,7.61-6.09,14.74-1.1,6.73-.78,11.58.94,14.54s4.63,4.44,8.71,4.44l-.97,5.35c-7.4,0-12.33-2.15-14.78-6.44ZM414.71,92.14c1.88-.79,3.45-2.13,4.73-4,1.27-1.88,2.34-3.98,3.2-6.32l7,1.97c-1.05,3.27-2.59,6.05-4.65,8.33s-4.48,3.94-7.28,4.99c-2.8,1.05-6.23,1.57-10.28,1.57l.97-5.35c2.33,0,4.44-.4,6.32-1.19Z"/><path class="cls-1" d="M443.22,50.61h6.36l.32,8.17-10.1,57.28h-8.13l11.54-65.44ZM445.49,94.67c-3.21-2.61-4.55-5.33-4.04-8.14l4.26-4.34c-.48,2.82.32,5.31,2.39,7.48,2.08,2.17,4.82,3.26,8.23,3.26s6.63-1.32,9.19-3.96c2.56-2.64,4.43-7.5,5.61-14.58,1.18-7.05,1-11.91-.54-14.56-1.54-2.65-4.11-3.98-7.7-3.98-3.41,0-6.53,1.1-9.37,3.3-2.84,2.2-4.5,4.68-4.99,7.44l-2.78-4.3c.51-2.84,2.8-5.57,6.88-8.19,4.08-2.61,8.71-3.92,13.92-3.92,5.74,0,9.63,2.01,11.69,6.03s2.43,10.07,1.15,18.14c-1.31,8.07-3.76,14.13-7.32,18.18-3.57,4.05-8.22,6.07-13.96,6.07-5.2,0-9.41-1.31-12.61-3.92Z"/><path class="cls-1" d="M493.89,35.12h8.13l-11.14,63.15h-8.13l11.14-63.15Z"/><path class="cls-1" d="M504.38,92.66c-2.67-3.98-3.37-10.1-2.11-18.36,1.29-8.31,4.03-14.42,8.23-18.32,4.2-3.9,9.85-5.85,16.95-5.85s12,1.97,14.68,5.91c2.68,3.94,3.38,10.03,2.09,18.26-1.29,8.31-4.02,14.45-8.21,18.4-4.18,3.96-9.83,5.93-16.93,5.93s-12.03-1.99-14.7-5.97ZM529.97,89.02c2.94-2.65,4.98-7.55,6.13-14.68,1.13-7.13.74-12.02-1.15-14.66-1.89-2.64-4.69-3.96-8.39-3.96s-7.07,1.33-10.02,3.98c-2.95,2.66-4.99,7.54-6.11,14.64-1.13,7.16-.75,12.06,1.13,14.7,1.88,2.64,4.68,3.96,8.41,3.96s7.06-1.33,10-3.98Z"/><path class="cls-1" d="M541.89,111.23c4.53,0,8.25-.87,11.14-2.59s5.56-5.21,8-10.44l7.52.08c-3.46,7.45-7.39,12.42-11.81,14.88s-9.7,3.7-15.87,3.7l1.01-5.63ZM550.62,50.61h8.53l4.71,44.29h-1.81l20.19-44.29h8.53l-22.2,47.67h-12.39l-5.55-47.67Z"/><path class="cls-2" d="M286.39,125.73h62.47v14.63h-40.93v20.59h38.08v13.94h-38.08v21.73h40.93v14.63h-62.47v-85.53Z"/><path class="cls-2" d="M358.44,125.73h34.78l16.72,68.48h-.19l16.79-68.48h34.72v85.53h-21.29v-70.64h-.25l-17.36,68.29h-25.02l-17.36-68.29h-.25v70.64h-21.29v-85.53Z"/><path class="cls-2" d="M472.8,125.73h43.9c11.87,0,20.17,3.17,24.9,9.5,4.73,6.34,7.1,17.4,7.1,33.2s-2.37,26.94-7.1,33.29c-4.73,6.36-13.03,9.53-24.9,9.53h-43.9v-85.53ZM510.88,196.62c5.57,0,9.68-1.51,12.32-4.53,2.64-3.02,3.96-10.91,3.96-23.66s-1.32-20.52-3.96-23.54c-2.64-3.02-6.75-4.53-12.32-4.53h-16.54v56.26h16.54Z"/><path class="cls-2" d="M562.8,203.59c-5.32-5.45-7.98-13.18-7.98-23.19h21.6c0,7.31,1.54,11.94,4.62,13.91,3.08,1.96,7.18,2.95,12.29,2.95s9.15-.78,12.26-2.34c3.1-1.56,4.66-3.95,4.66-7.16,0-3.76-2.12-6.34-6.37-7.73-4.25-1.39-10.08-2.83-17.52-4.31-11.78-2.53-19.98-5.41-24.58-8.62-4.6-3.21-6.91-8.47-6.91-15.77s2.71-13.41,8.14-18.56c5.43-5.15,15.45-7.73,30.06-7.73s24.8,2.8,30.19,8.39c5.39,5.6,8.08,13.12,8.08,22.59h-21.54c0-7.14-1.61-11.67-4.81-13.59-3.21-1.92-7.27-2.88-12.16-2.88-5.15,0-9.29.81-12.42,2.44-3.13,1.63-4.69,3.92-4.69,6.87,0,3.97,2.16,6.64,6.49,8.01,4.33,1.37,10.17,2.82,17.52,4.34,12.16,2.49,20.49,5.23,24.99,8.2,4.5,2.98,6.75,8.1,6.75,15.36s-2.64,13.84-7.92,19.1c-5.28,5.26-15.31,7.89-30.09,7.89s-25.34-2.72-30.66-8.17Z"/></svg>