<svg xmlns="http://www.w3.org/2000/svg" width="1em" height="1em" viewBox="0 0 24 24"><path fill="currentColor" d="m20.716 21.423l-2.547-2.527q-.453.287-.972.465q-.52.178-1.081.178q-1.414 0-2.419-1.005t-1.005-2.418t1.005-2.419t2.419-1.005t2.418 1.005t1.005 2.419q0 .553-.16 1.086q-.158.533-.502.967l2.546 2.547zm-4.605-2.884q1.016 0 1.722-.702t.706-1.717t-.702-1.722t-1.717-.706t-1.722.702t-.706 1.717t.702 1.722t1.717.705M20 10.692h-1V5.616q0-.231-.192-.424T18.384 5H16v2.23H8V5H5.616q-.231 0-.424.192T5 5.616v12.769q0 .23.192.423t.423.192H10.5v1H5.616q-.667 0-1.141-.475T4 18.386V5.615q0-.666.475-1.14T5.615 4h4.637q.14-.586.623-.985q.483-.4 1.125-.4q.654 0 1.134.4q.48.398.62.985h4.63q.667 0 1.142.475T20 5.615zm-7.997-5.461q.345 0 .575-.233t.23-.578t-.233-.575t-.578-.23t-.575.234t-.23.578t.234.574t.577.23"/></svg>